<?xml version="1.0" encoding="iso-8859-1"?>
<!-- Generator: Adobe Illustrator 19.0.0, SVG Export Plug-In . SVG Version: 6.00 Build 0)  -->
<svg version="1.1" id="Layer_1" xmlns="http://www.w3.org/2000/svg" xmlns:xlink="http://www.w3.org/1999/xlink" x="0px" y="0px"
	 viewBox="0 0 488.564 488.564" style="enable-background:new 0 0 488.564 488.564;" xml:space="preserve">
<ellipse transform="matrix(0.7071 -0.7071 0.7071 0.7071 -233.8967 189.2282)" style="fill:#E87118;" cx="111.47" cy="376.952" rx="91.999" ry="127.999"/>
<path id="SVGCleanerId_0" style="fill:#F29C11;" d="M270.764,217.941c-38.4-38.4-92.8-47.2-120.8-19.2c-5.6,5.6-9.6,12-12,20
	c-5.6,8-12,17.6-20.8,25.6c-8.8,8.8-20.8,12-31.2,13.6c-6.4,0-12.8,0.8-18.4,1.6c-0.8,0-1.6,0-2.4,0.8c-13.6,3.2-25.6,8.8-36,19.2
	c-36,35.2-24.8,104.8,25.6,154.4c49.6,49.6,119.2,60.8,155.2,24.8c9.6-9.6,16-22.4,19.2-36c0-0.8,0-1.6,0-1.6
	c0.8-6.4,1.6-12,1.6-19.2c1.6-10.4,4-22.4,13.6-31.2c8-8.8,18.4-14.4,26.4-20c7.2-2.4,14.4-6.4,20-12
	C318.764,310.741,309.964,256.341,270.764,217.941z"/>
<g>
	<path id="SVGCleanerId_0_1_" style="fill:#F29C11;" d="M270.764,217.941c-38.4-38.4-92.8-47.2-120.8-19.2c-5.6,5.6-9.6,12-12,20
		c-5.6,8-12,17.6-20.8,25.6c-8.8,8.8-20.8,12-31.2,13.6c-6.4,0-12.8,0.8-18.4,1.6c-0.8,0-1.6,0-2.4,0.8c-13.6,3.2-25.6,8.8-36,19.2
		c-36,35.2-24.8,104.8,25.6,154.4c49.6,49.6,119.2,60.8,155.2,24.8c9.6-9.6,16-22.4,19.2-36c0-0.8,0-1.6,0-1.6
		c0.8-6.4,1.6-12,1.6-19.2c1.6-10.4,4-22.4,13.6-31.2c8-8.8,18.4-14.4,26.4-20c7.2-2.4,14.4-6.4,20-12
		C318.764,310.741,309.964,256.341,270.764,217.941z"/>
</g>
<path style="fill:#F4B831;" d="M149.964,197.941c-5.6,5.6-9.6,12-12,20c-5.6,8.8-12,18.4-20.8,26.4c-8.8,8.8-20.8,12-31.2,13.6
	c-6.4,0-12.8,0.8-18.4,1.6c-0.8,0-1.6,0-2.4,0.8c-13.6,3.2-25.6,8.8-36,19.2c-16,16-23.2,39.2-20.8,64.8h276c1.6-1.6,4-3.2,5.6-4.8
	c28-28,19.2-82.4-20-120.8C232.364,178.741,177.964,169.941,149.964,197.941z"/>
<path d="M250.764,281.141c-8,8-20-6.4-28-13.6l-1.6-1.6c-8-8-21.6-20-13.6-28l176-162.4c8-8,20-8,28,0l1.6,1.6c8,8,8,20,0,28
	L250.764,281.141z"/>
<path d="M429.164,103.541c-8,8-20,8-28,0l-16-16c-8-8-8-20,0-28l35.2-35.2c8-8,20-8,28,0l16,16c8,8,8,20,0,28L429.164,103.541z"/>
<g>
	<path style="fill:#3A382D;" d="M257.964,273.941c-8,8-20-6.4-28-13.6l-1.6-2.4c-8-8-21.6-20-13.6-28l176-162.4c8-8,20-8,28,0
		l1.6,1.6c8,8,8,20,0,28L257.964,273.941z"/>
	<path style="fill:#3A382D;" d="M436.364,96.341c-8,8-20,8-28,0l-16-16c-8-8-8-20,0-28l35.2-35.2c8-8,20-8,28,0l16,16c8,8,8,20,0,28
		L436.364,96.341z"/>
</g>
<circle style="fill:#895B19;" cx="182.764" cy="305.941" r="41.6"/>
<path style="fill:#6D450F;" d="M201.964,286.741c14.4,14.4,16,36.8,4,52.8c1.6-1.6,4-2.4,5.6-4c16-16,16-42.4,0-58.4
	s-42.4-16-58.4,0c-1.6,1.6-3.2,3.2-4,5.6C165.164,270.741,187.564,272.341,201.964,286.741z"/>
<path style="fill:#442909;" d="M148.364,405.941c-4.8,4.8-5.6,12-10.4,7.2l-62.4-62.4c-4.8-4.8,2.4-5.6,7.2-10.4l0,0
	c4.8-4.8,12.8-4.8,17.6,0l48,48C153.164,393.141,153.164,401.141,148.364,405.941L148.364,405.941z"/>
<path style="fill:#6D450F;" d="M151.564,401.941c-4.8,4.8-5.6,12-10.4,7.2l-62.4-62.4c-4.8-4.8,2.4-5.6,7.2-10.4l0,0
	c4.8-4.8,12.8-4.8,17.6,0l47.2,47.2C156.364,389.141,156.364,397.141,151.564,401.941L151.564,401.941z"/>
<g>
	<path style="fill:#E87118;" d="M425.164,11.541c-2.4,2.4-5.6,2.4-7.2,0l0,0c-2.4-2.4-2.4-5.6,0-7.2l2.4-2.4c2.4-2.4,5.6-2.4,7.2,0
		l0,0c2.4,2.4,2.4,5.6,0,7.2L425.164,11.541z"/>
	<path style="fill:#E87118;" d="M410.764,25.941c-2.4,2.4-5.6,2.4-7.2,0l0,0c-2.4-2.4-2.4-5.6,0-7.2l2.4-2.4c2.4-1.6,5.6-1.6,7.2,0
		l0,0c2.4,2.4,2.4,5.6,0,7.2L410.764,25.941z"/>
	<path style="fill:#E87118;" d="M395.564,41.141c-2.4,2.4-5.6,2.4-7.2,0l0,0c-2.4-2.4-2.4-5.6,0-7.2l2.4-2.4c2.4-2.4,5.6-2.4,7.2,0
		l0,0c2.4,2.4,2.4,5.6,0,7.2L395.564,41.141z"/>
	<path style="fill:#E87118;" d="M484.364,70.741c-2.4,2.4-5.6,2.4-7.2,0l0,0c-2.4-2.4-2.4-5.6,0-7.2l2.4-2.4c2.4-2.4,5.6-2.4,7.2,0
		l0,0c2.4,2.4,2.4,5.6,0,7.2L484.364,70.741z"/>
	<path style="fill:#E87118;" d="M469.964,85.141c-2.4,2.4-5.6,2.4-7.2,0l0,0c-2.4-2.4-2.4-5.6,0-7.2l2.4-2.4c2.4-2.4,5.6-2.4,7.2,0
		l0,0c2.4,2.4,2.4,5.6,0,7.2L469.964,85.141z"/>
	<path style="fill:#E87118;" d="M455.564,100.341c-2.4,1.6-5.6,1.6-7.2,0l0,0c-2.4-2.4-2.4-5.6,0-7.2l2.4-2.4c2.4-2.4,5.6-2.4,7.2,0
		l0,0c2.4,2.4,2.4,5.6,0,7.2L455.564,100.341z"/>
</g>
<path style="fill:#F29C11;" d="M411.564,97.141c-0.8,0.8-1.6,0.8-2.4,0l-17.6-17.6c-0.8-0.8-0.8-1.6,0-2.4l0,0
	c0.8-0.8,1.6-0.8,2.4,0l17.6,17.6C411.564,95.541,411.564,96.341,411.564,97.141L411.564,97.141z"/>
<g>
	<circle style="fill:#DDD3C3;" cx="377.164" cy="111.541" r="3.2"/>
	<circle style="fill:#DDD3C3;" cx="345.964" cy="142.741" r="3.2"/>
	<circle style="fill:#DDD3C3;" cx="280.364" cy="208.341" r="3.2"/>
	<path style="fill:#DDD3C3;" d="M313.164,169.941c-1.6,1.6-3.2,1.6-4.8,0c-1.6-1.6-1.6-3.2,0-4.8s3.2-1.6,4.8,0
		C314.764,166.741,314.764,169.141,313.164,169.941z"/>
	<circle style="fill:#DDD3C3;" cx="320.364" cy="177.941" r="3.2"/>
</g>
<g>
</g>
<g>
</g>
<g>
</g>
<g>
</g>
<g>
</g>
<g>
</g>
<g>
</g>
<g>
</g>
<g>
</g>
<g>
</g>
<g>
</g>
<g>
</g>
<g>
</g>
<g>
</g>
<g>
</g>
</svg>
