<?xml version="1.0" encoding="UTF-8" standalone="no" ?>
<!DOCTYPE svg PUBLIC "-//W3C//DTD SVG 1.1//EN" "http://www.w3.org/Graphics/SVG/1.1/DTD/svg11.dtd">
<svg xmlns="http://www.w3.org/2000/svg" xmlns:xlink="http://www.w3.org/1999/xlink" version="1.1" width="1080" height="1080" viewBox="0 0 1080 1080" xml:space="preserve">
<desc>Created with Fabric.js 5.2.4</desc>
<defs>
</defs>
<g transform="matrix(1 0 0 1 540 540)" id="f0038158-2e7d-4538-a1f0-c23634966355"  >
</g>
<g transform="matrix(1 0 0 1 540 540)" id="2bb412ae-782e-4c51-abd7-e4a7c91e084a"  >
<rect style="stroke: none; stroke-width: 1; stroke-dasharray: none; stroke-linecap: butt; stroke-dashoffset: 0; stroke-linejoin: miter; stroke-miterlimit: 4; fill: rgb(255,255,255); fill-rule: nonzero; opacity: 1; visibility: hidden;" vector-effect="non-scaling-stroke"  x="-540" y="-540" rx="0" ry="0" width="1080" height="1080" />
</g>
<g transform="matrix(1.33 0 0 1.33 351.63 411.38)"  >
<path style="stroke: none; stroke-width: 1; stroke-dasharray: none; stroke-linecap: butt; stroke-dashoffset: 0; stroke-linejoin: miter; stroke-miterlimit: 4; fill: rgb(0,0,0); fill-rule: nonzero; opacity: 1;" vector-effect="non-scaling-stroke"  transform=" translate(-208.39, -199.3)" d="M 167.59 242.53 C 168.05484 242.99484 168.465 243.6784 168.89860000000002 244.405 C 169.31266000000002 245.10031 169.77751 245.8738 170.37130000000002 246.5847 C 170.56271 247.35032 170.91427000000002 248.1316 171.20724 248.6941 C 171.258021 248.780038 175.55104 255.78789999999998 178.63304000000002 258.1863 C 179.14866000000004 258.95974 179.62913000000003 259.7332 180.11744000000002 260.5066 C 182.09014000000002 263.6316 184.12524000000002 266.8738 187.49634 269.6785 L 191.59404 271.7957 C 192.45732 272.54179 193.63314 273.1395 194.13704 273.3738 C 194.89876 273.62771000000004 195.56674 274.02224 196.33624 274.4871 C 197.11358 274.95194 197.97684 275.47148 199.01984000000002 275.8699 C 199.45734000000002 276.17067999999995 199.94562000000002 276.35817999999995 200.39874 276.50271 L 200.29718 277.44802 L 202.49248 277.44802 L 202.92217 277.87771 L 203.51592 278.03004999999996 C 204.20342 278.20192999999995 204.79322 278.36598999999995 205.34011999999998 278.53004999999996 C 206.98461999999998 279.00660999999997 208.41042 279.41677 210.63701999999998 279.41677 L 212.18391999999997 279.37380099999996 C 217.20341999999997 280.37770099999994 229.66791999999998 282.70970099999994 236.98491999999996 282.70970099999994 C 237.53960999999995 282.70970099999994 238.14901999999995 282.77220099999994 238.79741999999996 282.83470099999994 C 239.64897999999997 282.91282499999994 240.60211999999996 283.00267099999996 241.62161999999995 283.00267099999996 C 242.56692999999996 283.00267099999996 243.56301999999994 282.92454599999996 244.58251999999996 282.69017099999996 C 246.27781999999996 282.48705099999995 248.55131999999995 280.92067099999997 250.21531999999996 279.60037099999994 L 250.68015999999997 279.09256099999993 C 252.06295999999998 277.0144609999999 253.77785999999998 274.44416099999995 253.00435999999996 270.98316099999994 C 252.86373999999995 269.4714609999999 251.77775999999997 267.97536099999996 250.96135999999996 267.0534609999999 C 250.15666999999996 259.8698609999999 246.15275999999994 257.17066099999994 241.92225999999997 254.32346099999992 C 240.78165999999996 253.55002099999993 239.57065999999998 252.7375609999999 238.30505999999997 251.74926099999993 C 235.66055999999998 249.76876099999993 233.51205999999996 247.19456099999994 231.23085999999998 244.47586099999992 C 229.22696 242.07356099999993 227.14885999999998 239.59306099999992 224.47305999999998 237.25706099999994 L 223.11755999999997 236.26097099999993 C 220.69175999999996 234.49147099999993 217.68395999999996 232.29217099999994 215.46135999999996 229.54217099999994 C 214.95744999999997 229.03826099999995 213.96525999999994 228.03437099999994 213.41835999999995 227.12417099999993 C 213.24648999999994 226.24917099999993 212.77382999999995 225.21397099999993 212.01995999999994 224.49917099999993 C 211.51604999999995 220.36637099999993 211.51604999999995 216.12807099999992 211.51604999999995 212.01117099999993 L 211.48870599999995 201.17117099999993 C 212.15667599999995 197.19457099999994 212.79730599999996 190.14417099999994 212.76990599999996 190.14417099999994 C 215.73080599999997 178.30017099999995 219.19180599999996 169.82017099999993 224.25390599999997 161.94117099999994 C 224.92578599999996 161.04664099999994 225.59770599999996 160.07787099999993 226.26950599999998 159.10137099999994 C 227.51170599999998 157.30837099999994 228.800706 155.44907099999995 230.257806 153.93727099999995 C 231.33980599999998 152.32007099999996 233.33200599999998 149.78107099999994 233.925806 149.03887099999994 C 235.086006 148.15996099999995 236.11720599999998 147.28497099999996 237.078106 146.46857099999994 C 238.17970599999998 145.53498099999993 239.17970599999998 144.67557099999993 240.523406 143.73027099999993 C 241.19528599999998 143.05839099999994 242.664006 141.58967099999992 243.37500599999998 141.08187099999992 L 244.21094599999998 140.67171099999993 C 244.93750599999998 140.15218099999993 245.77344599999998 139.60921099999993 246.65234599999997 139.04281099999994 C 251.57424599999996 135.86311099999995 258.31634599999995 131.49981099999994 256.945346 123.95681099999995 C 256.335966 120.92161099999994 254.46484599999997 119.16381099999994 252.43754599999997 117.90211099999995 L 252.48051399999997 117.81617299999995 C 252.09379399999997 117.62476299999994 251.71879399999997 117.44117299999995 251.35551399999997 117.27711299999994 C 250.83989399999996 116.99586299999994 250.33211399999996 116.73805299999994 249.83601399999998 116.49977299999995 C 249.24617399999997 116.20289299999995 248.574314 116.05836299999994 247.90241399999996 115.99977299999995 C 246.85941399999996 115.73024299999994 245.89071399999997 115.60915299999995 244.90631399999995 115.60915299999995 L 244.38678399999995 115.60133999999995 L 243.92194399999994 115.83180999999995 C 242.98053399999995 116.29664999999994 241.68364399999993 116.76539999999994 241.14854399999993 116.95290999999995 C 240.61729399999993 117.01931599999995 240.09384399999993 117.19899999999994 239.58604399999993 117.36696999999995 C 239.32432399999993 117.45681299999995 239.05870399999992 117.55837999999996 238.96495399999992 117.58571999999995 L 233.0391539999999 117.58571999999995 C 232.4805639999999 117.58571999999995 231.83995399999992 117.73805999999995 230.8555539999999 117.97633999999995 C 230.5235239999999 118.06227799999995 230.1993039999999 118.14821999999995 229.9649339999999 118.19899999999996 C 227.8126339999999 117.67946999999995 224.7774339999999 118.78883999999995 223.74223399999988 119.42949999999996 C 223.49614399999987 119.58183999999996 223.29301399999989 119.73808999999996 223.1250439999999 119.89824999999996 C 221.5234439999999 120.45683999999996 219.77734399999989 121.04664999999996 217.9375439999999 121.65604999999996 C 209.0781439999999 124.61694999999996 198.0585439999999 128.29664999999997 190.9335439999999 133.78504999999996 C 184.3632439999999 138.37884999999994 180.8825439999999 144.20704999999995 177.1955439999999 150.37104999999997 L 176.5275739999999 151.49214999999998 C 175.4259739999999 153.14444999999998 174.1681739999999 154.78904999999997 172.8869739999999 156.46874999999997 C 169.45337399999988 160.97654999999997 165.9025739999999 165.63674999999998 164.3986739999999 171.17974999999998 C 163.09007399999987 175.53134999999997 162.35567399999988 180.35944999999998 161.6447739999999 185.02374999999998 C 161.2541539999999 187.59014999999997 160.8674339999999 190.10965 160.3830739999999 192.54324999999997 C 158.3674739999999 205.30524999999997 160.9299539999999 219.77024999999998 163.69167399999992 232.18424999999996 C 164.46511399999991 236.06314999999995 166.01197399999992 239.64514999999997 167.17607399999991 241.96154999999996 z" stroke-linecap="round" />
</g>
<g transform="matrix(1.33 0 0 1.33 420.12 413.08)"  >
<path style="stroke: none; stroke-width: 1; stroke-dasharray: none; stroke-linecap: butt; stroke-dashoffset: 0; stroke-linejoin: miter; stroke-miterlimit: 4; fill: rgb(0,0,0); fill-rule: nonzero; opacity: 1;" vector-effect="non-scaling-stroke"  transform=" translate(-259.68, -200.42)" d="M 254.5 185.45 L 254.38672 186.22734 C 254.38672 186.60234 254.312502 186.97734 254.25391 187.35234 C 254.214848 187.58671999999999 254.175785 187.82109 254.14844 188.05937 C 253.94141 188.016401 253.73438 187.95781 253.50391 187.89531 L 251.56251 187.65312 C 250.10551 187.32109 246.36721 186.7625 244.03521 188.87972 C 243.12896 189.70394 242.13681 191.23131999999998 242.50791 193.48131999999998 C 242.50791 196.61801999999997 245.61731 199.72351999999998 247.88291 201.99301999999997 C 248.29697000000002 202.40707999999998 248.67197000000002 202.77817999999996 249.01961 203.15711999999996 C 247.58211 206.24691999999996 245.36341 210.67661999999996 245.25791 210.93441999999996 C 245.14072000000002 211.29769999999996 245.06650000000002 211.68050999999997 245.02744 212.07501999999997 L 244.81650000000002 214.27031999999997 C 244.81650000000002 216.36411999999996 245.85950000000003 218.25861999999998 247.60950000000003 219.33671999999996 C 249.3283 220.39531999999997 251.39070000000004 220.47341999999995 253.38290000000003 219.47733999999997 C 254.76570000000004 218.68046999999996 256.379 217.03203999999997 257.672 215.52423999999996 C 258.87120000000004 218.26253999999997 260.59000000000003 221.43043999999998 263.26180000000005 222.30543999999998 C 263.65243000000004 222.43434999999997 264.14071000000007 222.53590999999997 264.69540000000006 222.53590999999997 C 265.4571200000001 222.53590999999997 266.3477000000001 222.34449999999998 267.28920000000005 221.76246999999998 C 269.55870000000004 220.40306999999999 270.5314000000001 218.00077 269.89860000000004 214.89526999999998 L 269.07438 212.50466999999998 C 268.58610000000004 211.10626999999997 268.09391 209.71556999999999 268.02748 209.31716999999998 C 268.02748 208.39138999999997 267.63685000000004 207.66096999999996 267.28139000000004 207.06716999999998 C 267.12514000000004 206.34450999999999 267.04701000000006 204.56327 267.03530000000006 203.33276999999998 C 267.31655000000006 202.38745999999998 267.77358000000004 201.69216999999998 268.42980000000006 201.20387 C 268.86730000000006 200.88356 269.7970000000001 200.57496 270.69930000000005 200.27809 C 273.1290000000001 199.46168 277.65630000000004 197.94218999999998 276.82430000000005 192.77809 C 275.89071000000007 189.97728999999998 273.4766000000001 188.11789 270.09380000000004 188.33279 C 269.27739 188.47341 267.9766 188.54372999999998 266.8047 188.58669999999998 C 266.95704 186.21949999999998 267.12501000000003 183.53589999999997 266.20704 181.38359999999997 L 265.53907 180.45000999999996 C 265.06251 179.87188999999995 264.41407 179.07890999999995 263.51567 178.62970999999996 L 262.84379 178.43439999999995 C 262.70317 178.39143099999995 262.54301000000004 178.30939999999995 262.52348 178.30158999999995 L 262.38286 178.58674999999994 C 261.91802 178.43049999999994 261.42974 178.33283999999995 260.94926 178.30549999999994 C 259.82815999999997 178.24299999999994 258.22656 178.49690999999993 256.68755999999996 180.03599999999994 C 255.29305999999997 181.45399999999995 254.87115999999997 183.57899999999995 254.50005999999996 185.45009999999994 z" stroke-linecap="round" />
</g>
<g transform="matrix(1.33 0 0 1.33 493.92 356.55)"  >
<path style="stroke: none; stroke-width: 1; stroke-dasharray: none; stroke-linecap: butt; stroke-dashoffset: 0; stroke-linejoin: miter; stroke-miterlimit: 4; fill: rgb(0,0,0); fill-rule: nonzero; opacity: 1;" vector-effect="non-scaling-stroke"  transform=" translate(-315.07, -158.05)" d="M 292.69 149.79 C 293.7916 150.62984 294.7408 151.3486 295.0259 151.5752 C 296.11969999999997 153.2158 297.72119999999995 154.8135 299.11969999999997 156.2002 C 299.24469999999997 156.32911 299.40486 156.53223 299.56892 156.74707999999998 L 295.84622 164.19237999999999 C 295.30325 165.28617999999997 295.17044000000004 167.02048 295.13919000000004 168.05177999999998 C 294.92825000000005 168.51662 294.68997 169.01662 294.43216000000007 169.53617999999997 C 292.74466000000007 173.03617999999997 290.43216000000007 177.83697999999998 292.62746000000004 182.17717999999996 C 294.02586 184.28267999999997 296.07666000000006 184.94277999999997 298.22126000000003 185.48577999999998 L 298.76032000000004 185.54827999999998 C 299.61188000000004 185.54827999999998 300.36192000000005 185.33733999999998 301.08452000000005 185.08733999999998 C 306.1743200000001 185.79827999999998 310.42042000000004 178.49754 312.48652000000004 174.93934 C 312.72090000000003 174.53699999999998 312.90058000000005 174.22059 313.15840000000003 173.81434 C 313.20136900000006 173.72059 313.25996000000004 173.61121999999997 313.33028 173.50574999999998 C 315.37328 175.73624999999998 317.65838 177.65415 320.04508000000004 179.66984999999997 C 321.99428000000006 181.31044999999997 324.00988000000007 183.00574999999998 325.90448000000004 184.90034999999997 C 326.22870000000006 185.22456999999997 326.57245000000006 185.59565999999998 326.92788 185.98624999999998 C 328.61538 187.80655 331.36928 190.77925 334.62318 190.77925 C 335.78728 190.77925 337.00988 190.40425 338.26768 189.45114999999998 C 339.92388 188.31054999999998 342.42787999999996 185.59175 340.56458 180.33395 C 339.56849 177.51755 337.63097999999997 174.72455 336.08018 172.48235 C 335.39659 171.50188 334.46688 170.15815 334.32628 169.74015 C 334.05675 168.92374 333.6544 168.09955 333.24428 167.28705 C 332.93569 166.66595999999998 332.61537 166.04874999999998 332.40444 165.41205 C 331.97475000000003 164.11905 331.56850000000003 162.89255 331.56850000000003 161.82614999999998 L 331.646626 161.45114999999998 C 331.689594 161.43552499999998 331.740376 161.41208699999999 331.791156 161.39646199999999 C 333.650556 160.466772 337.755956 158.19336199999998 337.744256 158.16596199999998 C 339.435656 157.58784199999997 341.142656 155.724562 341.873156 154.85736199999997 C 343.40835599999997 153.78706199999996 347.127056 150.81436199999996 347.25595599999997 147.09176199999996 C 347.298925 145.72066199999995 346.88095599999997 143.70896199999996 344.646556 141.97456199999996 C 342.09185599999995 139.84176199999996 338.533256 140.33006199999997 335.38485599999996 140.75186199999996 C 333.986456 140.94327199999995 332.52935599999995 141.13077199999995 331.29105599999997 140.98233199999996 C 330.09185599999995 140.98233199999996 328.31055599999996 140.68155199999995 327.00195599999995 140.40421199999994 C 326.9121119999999 139.73624199999995 326.84570599999995 139.07221199999995 326.77929599999993 138.40031199999996 C 326.65429599999993 137.13861199999997 326.5253859999999 135.88081199999996 326.31445599999995 135.05261199999995 C 326.31445599999995 133.72451199999995 325.47851599999996 131.91591199999996 324.98635599999994 130.96281199999996 C 324.7246359999999 130.56047199999995 324.55666599999995 130.15031199999996 324.39260599999994 129.76361199999997 C 324.20901599999996 129.31439199999997 324.00198599999993 128.82220199999998 323.67385599999994 128.31441199999998 L 323.75198099999994 128.23628699999998 C 323.6230709999999 128.10737699999999 323.49417099999994 127.98237699999997 323.3652609999999 127.86128699999998 C 322.9863509999999 127.36128699999998 322.47073099999994 126.86519699999998 321.7402609999999 126.38858699999997 C 320.66996099999994 125.85733699999997 319.0761609999999 125.31438699999997 319.0761609999999 125.31438699999997 L 319.0136609999999 125.49407699999996 C 318.4355409999999 125.37688699999997 317.8613609999999 125.33001699999996 317.2714609999999 125.34954699999996 C 315.3964609999999 125.43548499999996 313.7089609999999 126.31829699999996 312.3886609999999 127.90424699999996 L 312.0878809999999 128.38471699999997 C 311.5800709999999 129.40421699999996 311.06838099999993 130.43551699999998 310.6816809999999 131.67381699999996 C 310.15434099999993 132.73241699999997 309.4785809999999 134.49021699999994 308.9628809999999 135.84571699999995 C 308.9199119999999 135.95899699999995 308.8769429999999 136.06446699999995 308.8378809999999 136.16993699999995 C 308.56835099999995 136.15431199999995 308.34960099999995 136.13087399999995 308.19335099999995 136.10352999999995 L 307.44335099999995 135.79102999999995 C 306.47069099999993 135.54883999999996 305.38085099999995 135.30274999999995 304.283151 135.06446999999994 C 303.22455099999996 134.83008999999996 302.16595099999995 134.59962999999993 301.38085099999995 134.40430999999995 C 300.47460099999995 134.10352999999995 299.31835099999995 133.48633999999996 298.1035509999999 132.83010999999996 C 294.3223509999999 130.80280999999997 288.00155099999995 127.41600999999996 283.9865509999999 133.42776999999995 C 279.9318509999999 140.00586999999996 287.9240509999999 146.12676999999996 292.6896509999999 149.79076999999995 z" stroke-linecap="round" />
</g>
<g transform="matrix(1.33 0 0 1.33 709.6 506.03)"  >
<path style="stroke: none; stroke-width: 1; stroke-dasharray: none; stroke-linecap: butt; stroke-dashoffset: 0; stroke-linejoin: miter; stroke-miterlimit: 4; fill: rgb(0,0,0); fill-rule: nonzero; opacity: 1;" vector-effect="non-scaling-stroke"  transform=" translate(-476.83, -270.14)" d="M 504.24 246.14 C 503.63062 245.61265999999998 503.0877 245.23375 502.6111 244.99939999999998 C 501.2791 244.33142999999998 499.5994 244.19471 498.8806 244.16346 C 497.1618 243.72205 495.3376 244.18689799999999 494.24780000000004 244.58924 L 493.81811000000005 244.15174 L 492.9548300000001 244.15174 C 492.0798300000001 244.15174 491.4860300000001 244.52283 491.1228300000001 244.82752 C 487.1697300000001 245.30408 483.33373000000006 247.07362 479.6148300000001 248.78062 C 477.1187300000001 249.92902 474.7671300000001 251.01112 472.3531300000001 251.73372 C 470.4547300000001 252.36653 468.4000300000001 253.15562 466.3453300000001 253.95252 C 464.4312300000001 254.68689999999998 462.5133300000001 255.42522 460.7398300000001 256.02281999999997 C 460.2984200000001 256.07750699999997 459.8374900000001 256.21813 459.4195300000001 256.37438 C 457.2359300000001 255.31967999999998 454.61873000000014 255.20247999999998 452.2164300000001 256.08921999999995 C 449.4742300000001 257.09701999999993 447.4664300000001 259.20251999999994 446.8453300000001 261.50332 C 445.9390800000001 263.31192 445.9390800000001 267.15562 446.8453300000001 268.96812 C 447.4742400000001 270.21812 448.87263000000013 271.73372 449.4898300000001 272.37432 C 450.1070200000001 273.60482 450.8375300000001 274.97202 452.2281300000001 276.36652000000004 L 454.1031300000001 278.00712000000004 L 454.1031300000001 278.8704 L 456.8804300000001 281.636 C 457.7202700000001 283.61650000000003 460.3687300000001 286.64770000000004 465.4820300000001 291.50320000000005 L 465.93125000000015 291.94070000000005 C 467.4039500000001 293.4134 470.40005000000014 294.6555000000001 471.35315000000014 294.99930000000006 C 472.3883500000001 295.20633000000004 472.9508500000001 295.41336000000007 473.4234500000001 295.59305000000006 C 474.5953500000001 296.02274000000006 475.4898500000001 296.28836000000007 477.9937500000001 296.28836000000007 L 478.48203000000007 296.28836000000007 L 478.91953000000007 296.0774200000001 C 480.4312300000001 295.31961000000007 481.8101300000001 293.96022000000005 481.9586300000001 293.81572000000006 L 485.3336300000001 290.38212000000004 C 486.46643000000006 288.68682000000007 488.0211300000001 285.64382000000006 488.4625300000001 284.78052 C 489.10706000000005 283.96802 489.59533000000005 282.75322 489.84533000000005 282.04612000000003 C 490.31017 281.32737000000003 490.68908000000005 280.61252 491.0601300000001 279.92892 C 491.5679400000001 278.97189000000003 492.01716000000005 278.14372000000003 492.5562300000001 277.60472 L 492.9468500000001 277.06566 C 493.6460700000001 275.67116 494.1343500000001 274.64766 494.3257500000001 273.77266 C 495.5405500000001 271.94066 496.7554500000001 270.06955999999997 497.3101500000001 268.33516 L 499.5992500000001 263.76095999999995 L 499.6383130000001 263.7258029999999 C 503.0602130000001 260.9992029999999 508.2242130000001 256.88200299999994 507.39611300000007 250.54180299999993 C 506.7867330000001 248.70590299999992 505.43131300000005 247.23710299999993 504.6227130000001 246.47540299999994 L 504.68911900000006 246.34649299999995 C 504.48599900000005 246.21758299999996 504.31411900000006 246.12774299999995 504.29067900000007 246.16680299999996 L 504.27505400000007 246.15117799999996 L 504.27896000000004 246.13945899999996 z M 491.38800000000003 244.80409999999998 C 491.42706300000003 244.80019299999998 491.454406 244.79238099999998 491.48956000000004 244.79238099999998 C 491.493466 244.79238099999998 491.493466 244.79238099999998 491.501278 244.79628699999998 C 491.46612200000004 244.79238099999998 491.42706000000004 244.79628699999998 491.38799800000004 244.80409999999998 z" stroke-linecap="round" />
</g>
<g transform="matrix(1.33 0 0 1.33 736.93 600.65)"  >
<path style="stroke: none; stroke-width: 1; stroke-dasharray: none; stroke-linecap: butt; stroke-dashoffset: 0; stroke-linejoin: miter; stroke-miterlimit: 4; fill: rgb(0,0,0); fill-rule: nonzero; opacity: 1;" vector-effect="non-scaling-stroke"  transform=" translate(-497.33, -341.1)" d="M 528.26 335.05 C 526.967 333.1086 525.6467 332.2453 524.1116 331.24920000000003 L 522.803 330.38592000000006 L 520.3772 330.38592000000006 C 519.342 329.71795000000003 517.971 329.29212000000007 516.7327 328.90932000000004 C 516.52567 328.84682000000004 516.33036 328.78432000000004 516.15067 328.72963000000004 L 515.01007 328.11244000000005 C 513.7209700000001 327.4679100000001 511.36557000000005 326.56554000000006 509.31087 327.26869000000005 L 505.96317000000005 327.26869000000005 C 500.61937000000006 327.26869000000005 494.40817000000004 326.85463000000004 488.96317000000005 323.83119000000005 C 485.76007000000004 321.90929000000006 483.19367000000005 320.62809000000004 480.72097 319.38979000000006 L 480.28347 319.17104000000006 L 479.79128000000003 319.17104000000006 C 479.17019000000005 319.17104000000006 477.98268 318.8702600000001 477.33428000000004 318.6515100000001 L 477.29521800000003 318.7569800000001 C 474.174118 318.1280700000001 471.58821800000004 318.6515100000001 469.57641800000005 320.3546800000001 C 463.58811800000007 325.4288800000001 465.224818 339.2766800000001 467.2287180000001 351.8586800000001 C 467.46309800000006 353.3352800000001 467.6662180000001 354.6203800000001 467.7951280000001 355.60088000000013 C 468.2482480000001 359.14388000000014 470.36542800000007 361.65558000000016 473.9201280000001 362.8703800000001 C 475.5959280000001 363.44069000000013 477.5842280000001 363.69850000000014 479.8068280000001 363.69850000000014 C 495.0058280000001 363.69850000000014 520.8768280000002 351.6635000000001 526.7558280000001 345.7765000000001 C 529.2870280000001 343.2453000000001 530.021428 338.5343000000001 528.3925280000001 335.2765000000001 z" stroke-linecap="round" />
</g>
<g transform="matrix(1.33 0 0 1.33 689.84 700.96)"  >
<path style="stroke: none; stroke-width: 1; stroke-dasharray: none; stroke-linecap: butt; stroke-dashoffset: 0; stroke-linejoin: miter; stroke-miterlimit: 4; fill: rgb(0,0,0); fill-rule: nonzero; opacity: 1;" vector-effect="non-scaling-stroke"  transform=" translate(-461.99, -416.34)" d="M 486.31 426.48 C 487.5014 422.7495 486.76312 417.5659 486.19281 414.71000000000004 L 486.02093 414.19437000000005 C 485.80999 413.77250000000004 485.68890000000005 413.30375000000004 485.55609000000004 412.7490700000001 C 485.41156000000007 412.1592300000001 485.24750000000006 411.50687000000005 484.94671000000005 410.8115700000001 C 484.8724920000001 410.35845000000006 484.72405000000003 409.9053200000001 484.5756200000001 409.47177000000005 C 484.5131200000001 409.28818000000007 484.4506200000001 409.1084900000001 484.40765000000005 408.9913 C 484.77874 407.09290000000004 483.93109000000004 405.0265 483.35295 403.6202 C 483.22795 403.33504 483.1342 403.07723 483.11858 403.27254 L 483.095142 402.73348 L 482.876392 402.29598 C 481.88030200000003 400.29208 481.32559200000003 399.06937999999997 481.251392 398.90927999999997 L 481.145922 398.25302999999997 C 480.653732 396.79213 479.192822 392.40533 475.524822 391.34283 C 474.15762199999995 390.74517 472.24362199999996 390.62408 471.40762199999995 390.60455 C 470.67324199999996 390.39361 469.91152199999993 390.25689 469.25142199999993 390.17486 C 468.6811119999999 390.08111 468.1108219999999 390.02252000000004 467.57562199999995 390.0108 L 467.17718199999996 389.987362 C 466.10298199999994 389.588922 465.083382 389.65533200000004 464.35298199999994 389.831112 C 458.7631819999999 387.749112 450.23998199999994 393.846712 446.55198199999995 396.815512 C 446.16136199999994 397.206132 445.76682199999993 397.526452 445.3996819999999 397.823312 C 444.53640199999995 398.542062 443.64188199999995 399.272512 443.0480819999999 400.47171199999997 L 442.8293319999999 400.90921199999997 L 442.8293319999999 401.40140199999996 C 442.8293319999999 401.77640199999996 442.7121419999999 402.21390199999996 442.5988619999999 402.538102 C 441.7941719999999 403.21388199999996 441.2785619999999 404.15140199999996 440.87226199999986 404.877902 C 440.81757399999987 404.98337200000003 440.7589819999999 405.088842 440.70820199999986 405.178682 C 439.95820199999986 405.54977199999996 439.32930199999987 406.319282 438.83320199999986 407.502882 C 435.75900199999984 409.866182 436.00900199999984 415.584882 436.80590199999983 417.900882 C 437.43871199999984 419.16648200000003 439.0403019999998 420.572782 439.9973019999998 421.33448200000004 C 442.2981019999998 427.08448200000004 456.9033019999998 434.96348200000006 457.05630199999985 435.04148200000003 C 457.3648919999998 435.19773200000003 457.75552199999987 435.439922 458.2165019999998 435.717262 C 459.65010199999983 436.592262 461.6110019999998 437.787562 463.7165019999998 438.314962 L 464.1774419999998 438.377462 C 464.6852519999998 438.41261799999995 465.98214199999984 438.725122 466.5563419999998 438.869652 L 466.6852519999998 438.94386999999995 C 469.8883519999998 440.77586999999994 474.24385199999983 443.27196999999995 478.6542519999998 443.27196999999995 C 480.5136519999998 443.27196999999995 482.3769519999998 442.8227499999999 484.1698519999998 441.70556999999997 C 487.6073519999998 439.13136999999995 488.1503519999998 433.68607 487.3886519999998 430.65856999999994 C 486.9550619999998 429.38516999999996 486.5175619999998 427.42806999999993 486.3105519999998 426.4788699999999 z" stroke-linecap="round" />
</g>
<g transform="matrix(1.33 0 0 1.33 611.24 740.92)"  >
<path style="stroke: none; stroke-width: 1; stroke-dasharray: none; stroke-linecap: butt; stroke-dashoffset: 0; stroke-linejoin: miter; stroke-miterlimit: 4; fill: rgb(0,0,0); fill-rule: nonzero; opacity: 1;" vector-effect="non-scaling-stroke"  transform=" translate(-403.03, -446.33)" d="M 422.78 428.88 C 422.54952999999995 428.28625 422.31906 427.6691 422.09641 427.048 C 420.34251 422.2863 417.94021 415.763 409.64341 415.763 C 407.35821000000004 415.763 404.99501000000004 415.763 403.44421 415.24347 L 402.78796 415.138 C 402.64734 415.138 402.51452 415.14190599999995 402.3739 415.153625 L 400.2958 415.138 C 400.03799 415.138 399.80361 415.09503099999995 399.50674 415.052063 L 397.45203999999995 414.591123 C 396.29184 414.259093 394.98323999999997 413.89190299999996 393.26843999999994 413.89190299999996 C 388.7567399999999 413.89190299999996 385.38953999999995 415.47000299999996 383.26043999999996 418.58330299999994 C 376.61204 428.2942029999999 385.15493999999995 450.26330299999995 387.96353999999997 457.48530299999993 C 388.3112 458.3798329999999 388.70181999999994 459.5556029999999 389.13933999999995 460.8837029999999 C 391.3502399999999 467.53600299999994 394.37373999999994 476.6537029999999 400.13933999999995 478.4777029999999 C 400.74871999999993 478.6730129999999 401.35414 478.7628629999999 401.94404 478.7628629999999 C 408.19793999999996 478.7628629999999 413.11604 468.39186299999994 417.13203999999996 459.91886299999993 C 418.1047 457.8641629999999 418.96403999999995 456.05556299999995 419.67893999999995 454.7821629999999 C 424.88593999999995 445.57126299999993 426.73364 440.96616299999994 424.05783999999994 432.39916299999993 C 423.7023699999999 431.3093629999999 423.28049999999996 430.14526299999994 422.7805399999999 428.87966299999994 z" stroke-linecap="round" />
</g>
<g transform="matrix(1.33 0 0 1.33 523.41 711.26)"  >
<path style="stroke: none; stroke-width: 1; stroke-dasharray: none; stroke-linecap: butt; stroke-dashoffset: 0; stroke-linejoin: miter; stroke-miterlimit: 4; fill: rgb(0,0,0); fill-rule: nonzero; opacity: 1;" vector-effect="non-scaling-stroke"  transform=" translate(-337.17, -424.08)" d="M 350.32 400.38 C 347.6598 398.548 345.1559 396.8175 343.5231 395.1847 C 342.98013 394.64564 342.4411 394.0324 341.8825 393.3917 C 340.7419 392.0987 339.45279999999997 390.63 338.0583 389.6105 C 336.9645 388.69644 335.66769999999997 388.0207 335.5231 387.9464 L 335.36685 388.16906 C 333.39415 387.49328 331.37855 387.62218 329.27305 388.55578 C 327.20275000000004 389.59878000000003 325.64025000000004 392.27458 325.64025000000004 394.77848 L 325.64025000000004 395.95428 C 323.58945000000006 397.27067999999997 322.17935000000006 399.86447999999996 321.58555 401.54807999999997 C 320.31995 402.49339 319.34725000000003 403.89968 319.13245 404.21997999999996 L 318.83167000000003 404.94653999999997 C 316.33557 416.79454 315.08557 423.02853999999996 313.85897000000006 434.78254 C 313.29256000000004 437.05593999999996 313.19881000000004 440.86843999999996 313.1831900000001 442.27474 C 309.8901900000001 449.00134 309.1948900000001 453.98974 311.12849000000006 457.11874 C 312.47619000000003 459.31014 314.92149000000006 460.42344 318.3706900000001 460.42344 C 332.7186900000001 460.42344 349.1206900000001 441.05244000000005 360.2146900000001 426.48244 C 362.55059000000006 423.42384 364.6443900000001 420.06054 364.2146900000001 416.16644 C 363.44907000000006 409.43594 356.4763900000001 404.62744000000004 350.3196900000001 400.38144 z" stroke-linecap="round" />
</g>
<g transform="matrix(1.33 0 0 1.33 602.36 600.01)"  >
<path style="stroke: none; stroke-width: 1; stroke-dasharray: none; stroke-linecap: butt; stroke-dashoffset: 0; stroke-linejoin: miter; stroke-miterlimit: 4; fill: rgb(0,0,0); fill-rule: nonzero; opacity: 1;" vector-effect="non-scaling-stroke"  transform=" translate(-396.47, -340.73)" d="M 436.16 280.32 C 433.7733 278.527 429.535 274.8981 429.5233 274.8981 C 428.92564 274.30044 428.3241 273.6598 427.7147 273.0153 C 427.50376 272.79264 427.26547999999997 272.56608 427.05454 272.34342000000004 C 426.22641 273.0817 425.34754 273.81222 424.58973999999995 274.56222 C 414.7499399999999 283.57392000000004 406.4177399999999 291.98822 399.76973999999996 299.64022 C 396.92593999999997 302.45662 394.57833999999997 305.23002 392.30884 307.91752 C 389.98073999999997 310.67142 387.57054 313.51912000000004 384.70333999999997 316.35112000000004 C 379.69554 320.67922000000004 374.66833999999994 325.01522000000006 370.37134 329.25312 C 367.94554 331.63982000000004 365.76194 334.26092 363.64473999999996 336.79222000000004 C 361.47283999999996 339.39772000000005 359.21894 342.08912000000004 356.65644 344.61642000000006 C 349.92983999999996 351.2531200000001 342.95344 357.97942000000006 336.20344 364.90542000000005 C 338.16824 368.84292000000005 340.28544 372.44452000000007 342.36754 375.61642000000006 C 345.44564 379.30782000000005 348.63314 383.12422000000004 352.22304 386.68642000000006 C 354.11754 389.2137200000001 355.99644 391.1161200000001 357.82854000000003 392.9481200000001 C 358.66838 394.29582000000005 360.42234 395.7254200000001 361.18794 396.3153200000001 C 368.55904000000004 404.7059200000001 378.89494 409.1243200000001 391.14894000000004 409.1243200000001 C 391.36769000000004 409.1243200000001 391.59816000000006 409.1243200000001 391.82081000000005 409.12041400000015 C 409.94981000000007 408.88603400000017 430.89081000000004 398.67141400000014 442.73081 384.29641400000014 C 449.69171 376.0698140000001 452.27771 365.70241400000015 454.76981 355.68741400000016 L 455.00028000000003 354.7928840000002 C 455.87919000000005 351.2694840000002 456.30888000000004 348.25378400000017 456.30888000000004 345.5623840000002 L 456.3049740000001 340.11318400000016 C 457.38697400000007 326.0231840000002 457.1604440000001 309.52718400000015 447.19947400000007 293.8671840000002 L 445.60967400000004 291.60548400000016 C 442.89877400000006 287.69928400000015 440.08627400000006 283.67188400000015 436.160474 280.32048400000014 z" stroke-linecap="round" />
</g>
<g transform="matrix(1.33 0 0 1.33 543.75 514.87)"  >
<path style="stroke: none; stroke-width: 1; stroke-dasharray: none; stroke-linecap: butt; stroke-dashoffset: 0; stroke-linejoin: miter; stroke-miterlimit: 4; fill: rgb(0,0,0); fill-rule: nonzero; opacity: 1;" vector-effect="non-scaling-stroke"  transform=" translate(-352.83, -277.19)" d="M 516.3 81.453 C 505.71399999999994 79.9257 498.323 86.4725 491.79999999999995 92.24600000000001 C 489.0773 94.65220000000001 486.5148 96.93350000000001 483.78829999999994 98.65620000000001 C 475.18279999999993 104.09760000000001 468.1712999999999 111.19920000000002 461.3902999999999 118.07020000000001 C 454.5191999999999 125.02720000000001 448.0352999999999 131.5902 439.9992999999999 136.6322 C 426.6982999999999 144.98770000000002 415.60129999999987 158.9212 407.71429999999987 168.84320000000002 C 403.6165999999999 172.88620000000003 400.3665999999999 176.08930000000004 396.3742999999999 179.2572 C 395.0734999999999 180.00329000000002 394.0773999999999 181.2689 393.1984999999999 182.3861 C 393.0344399999999 182.59313 392.8859999999999 182.78844 392.7453799999999 182.96422 L 391.7219799999999 183.77672 C 388.37427999999994 187.07362 384.9133799999999 190.49152 381.46397999999994 194.73772000000002 C 379.4873799999999 197.17912 373.79207999999994 204.19472000000002 371.81557999999995 206.12472000000002 L 370.62807999999995 207.06613000000002 C 368.74528 209.18723000000003 366.85857999999996 211.22233000000003 365.00697999999994 213.22633000000002 C 360.98747999999995 217.57013 357.19057999999995 221.66383000000002 353.9599799999999 225.96433000000002 C 351.39357999999993 228.49553000000003 346.4599799999999 234.14403000000001 346.4013799999999 234.22993000000002 C 344.9247799999999 235.68693000000002 342.9755799999999 237.88613000000004 341.1552799999999 239.96433000000002 C 339.8896799999999 241.41353 338.2450799999999 244.09323 337.3818799999999 244.09323 L 336.5693799999999 244.09323 L 335.7959399999999 245.68303 C 335.5107799999999 246.24162 333.9014399999999 247.81583 332.30763999999994 249.00333 C 330.51073999999994 250.47603 328.49513999999994 251.83533 326.4678399999999 253.21423000000001 C 322.7373399999999 255.74153 318.8858399999999 258.35093 315.90183999999994 261.89003 C 313.55413999999996 264.96813000000003 307.94483999999994 270.51893 307.94873999999993 270.53453 C 308.7885799999999 275.56973 276.37073999999996 303.78853000000004 272.6127399999999 307.88253000000003 C 262.04673999999994 319.39053 251.0147399999999 328.97653 242.63273999999993 342.00353 C 232.69913999999991 357.43753000000004 219.10173999999992 371.72253 206.98473999999993 385.49153 C 194.73873999999992 399.40553 180.53173999999993 411.25753000000003 170.85173999999992 427.32353 C 168.30873999999991 431.54623 165.28143999999992 437.95253 165.28143999999992 444.45253 C 165.28143999999992 445.25722 165.32440799999992 446.06583 165.42205999999993 446.85873000000004 C 166.34002999999993 454.40563000000003 170.86345999999992 465.06973000000005 176.84005999999994 469.83173000000005 C 181.07445999999993 473.20673000000005 188.25405999999992 475.72233000000006 198.41005999999993 468.54263000000003 C 207.74985999999993 461.94493000000006 215.83205999999993 449.63663 218.72605999999993 443.43363000000005 C 221.25335999999993 438.03133 224.56195999999994 434.01953000000003 228.39015999999992 429.37163000000004 L 230.5190599999999 426.77783000000005 C 250.61705999999992 402.54783000000003 275.9920599999999 383.39483000000007 295.4140599999999 358.81683000000004 C 310.9140599999999 339.19983 330.0270599999999 321.15283000000005 347.8480599999999 303.58283000000006 C 351.3050599999999 300.17663000000005 354.3324599999999 296.5476300000001 357.2660599999999 293.03983000000005 C 360.11765999999994 289.6296300000001 363.0629599999999 286.10233000000005 366.3324599999999 282.87983 C 372.1293599999999 277.16103000000004 378.8984599999999 271.32083 385.6524599999999 265.48483000000004 C 389.5235599999999 261.67233000000004 392.76965999999993 257.82863000000003 395.9064599999999 254.11783000000005 C 398.96505999999994 250.50063000000006 402.12125999999995 246.75843000000006 405.9574599999999 242.96183000000005 C 414.92225999999994 232.65683000000004 426.1524599999999 221.30583000000004 439.41045999999994 209.16483000000005 C 443.09015999999997 205.53983000000005 447.51205999999996 202.00863000000004 451.7934599999999 198.59083000000004 C 456.1879599999999 195.08693000000005 460.7309599999999 191.46193000000005 464.5634599999999 187.68083000000004 C 469.5087599999999 183.04803000000004 474.5204599999999 178.50113000000005 479.5204599999999 173.96183000000005 C 490.0204599999999 164.43063000000004 500.8724599999999 154.57483000000005 510.9154599999999 144.09083000000004 C 513.4818599999999 141.40723000000003 516.4701599999999 138.81743000000003 519.6342599999999 136.06743000000003 C 528.4154599999999 128.43853000000004 538.3722599999999 119.79743000000003 540.22426 107.39943000000002 C 542.04066 94.96143000000002 526.56826 82.93843000000003 516.3022599999999 81.45443000000003 z" stroke-linecap="round" />
</g>
</svg>